<svg width="64" height="64" viewBox="0 0 64 64" fill="none" xmlns="http://www.w3.org/2000/svg">
<path fill-rule="evenodd" clip-rule="evenodd" d="M31.5596 1.45849L31.9966 0L51.9877 32.5938L50.4053 33.5129C49.6207 33.3946 48.8175 33.3333 48 33.3333C41.1894 33.3333 35.3727 37.5886 33.0635 43.5854L31.9966 44.2051L31.5596 43.7767V1.45849Z" fill="#7986CB"/>
<path d="M31.9919 0L12.0002 32.5938L31.9919 44.2051V23.665V0Z" fill="#9EA7D9"/>
<path fill-rule="evenodd" clip-rule="evenodd" d="M32.0646 47.8846L31.9965 47.9241L31.7502 48.2192V63.2936L31.9965 64L35.4356 59.2409C33.284 56.5162 31.9999 53.0748 31.9999 49.3334C31.9999 48.845 32.0218 48.3618 32.0646 47.8846Z" fill="#7986CB"/>
<path fill-rule="evenodd" clip-rule="evenodd" d="M31.9917 47.924V64L12 36.3188L31.9917 47.924Z" fill="#9EA7D9"/>
<path fill-rule="evenodd" clip-rule="evenodd" d="M33.066 43.5789L31.989 44.2044V23.6643L51.9802 32.5931L50.3984 33.5119C49.616 33.3943 48.8151 33.3333 48 33.3333C41.1919 33.3333 35.3769 37.5855 33.066 43.5789Z" fill="#5C6BC0"/>
<path d="M12 32.5931L31.9917 44.2044V23.6643L12 32.5931Z" fill="#7986CB"/>
<path d="M61.3334 49.3333C61.3334 56.6971 55.3639 62.6666 48.0001 62.6666C40.6363 62.6666 34.6667 56.6971 34.6667 49.3333C34.6667 41.9695 40.6363 36 48.0001 36C55.3639 36 61.3334 41.9695 61.3334 49.3333Z" fill="url(#paint0_linear)"/>
<path d="M47.4452 55.1679L42.0242 47.0365C41.7289 46.5934 42.0465 46 42.5789 46H44.9893C45.2051 46 45.4075 46.1045 45.5326 46.2803L47.4566 48.986C47.7224 49.3597 48.2774 49.3597 48.5432 48.986L50.4672 46.2803C50.5923 46.1045 50.7947 46 51.0105 46H53.4209C53.9534 46 54.2709 46.5934 53.9756 47.0365L48.5546 55.1679C48.2907 55.5638 47.7091 55.5638 47.4452 55.1679Z" fill="white"/>
<defs>
<linearGradient id="paint0_linear" x1="48.0001" y1="36" x2="48.0001" y2="62.6666" gradientUnits="userSpaceOnUse">
<stop stop-color="#7AEDCF"/>
<stop offset="0.201333" stop-color="#68CEFA"/>
<stop offset="0.403244" stop-color="#689CF8"/>
<stop offset="0.602076" stop-color="#AC57C0"/>
<stop offset="0.801867" stop-color="#E65659"/>
<stop offset="1" stop-color="#F2C241"/>
</linearGradient>
</defs>
</svg>
