<svg width="64" height="64" viewBox="0 0 64 64" fill="none" xmlns="http://www.w3.org/2000/svg">
<path fill-rule="evenodd" clip-rule="evenodd" d="M29.6697 9.09387L29.9974 8L44.9908 32.4454L43.804 33.1347C43.2156 33.046 42.6132 33 42 33C36.8921 33 32.5295 36.1914 30.7976 40.6891L29.9974 41.1538L29.6697 40.8326V9.09387Z" fill="#7986CB"/>
<path d="M29.994 8L15.0002 32.4454L29.994 41.1538V25.7488V8Z" fill="#9EA7D9"/>
<path fill-rule="evenodd" clip-rule="evenodd" d="M30.0485 43.9134L29.9975 43.9431L29.8127 44.1644V55.4702L29.9975 56L32.5768 52.4307C30.9631 50.3871 30 47.8061 30 45.0001C30 44.6338 30.0164 44.2713 30.0485 43.9134Z" fill="#7986CB"/>
<path fill-rule="evenodd" clip-rule="evenodd" d="M29.9938 43.943V56L15 35.2391L29.9938 43.943Z" fill="#9EA7D9"/>
<path fill-rule="evenodd" clip-rule="evenodd" d="M30.7995 40.6842L29.9917 41.1533V25.7483L44.9851 32.4449L43.7988 33.1339C43.212 33.0457 42.6113 33 42 33C36.8939 33 32.5327 36.1891 30.7995 40.6842Z" fill="#5C6BC0"/>
<path d="M15 32.4449L29.9938 41.1533V25.7483L15 32.4449Z" fill="#7986CB"/>
<path d="M52 45C52 50.5228 47.5228 55 42 55C36.4772 55 32 50.5228 32 45C32 39.4772 36.4772 35 42 35C47.5228 35 52 39.4772 52 45Z" fill="url(#paint0_linear)"/>
<path d="M41.5839 49.376L37.5182 43.2773C37.2966 42.9451 37.5348 42.5 37.9342 42.5H39.742C39.9038 42.5 40.0556 42.5783 40.1494 42.7102L41.5925 44.7395C41.7918 45.0198 42.2081 45.0198 42.4074 44.7395L43.8504 42.7102C43.9442 42.5783 44.0961 42.5 44.2579 42.5H46.0657C46.465 42.5 46.7032 42.9451 46.4817 43.2773L42.416 49.376C42.218 49.6728 41.7818 49.6728 41.5839 49.376Z" fill="white"/>
<defs>
<linearGradient id="paint0_linear" x1="42" y1="35" x2="42" y2="55" gradientUnits="userSpaceOnUse">
<stop stop-color="#7AEDCF"/>
<stop offset="0.201333" stop-color="#68CEFA"/>
<stop offset="0.403244" stop-color="#689CF8"/>
<stop offset="0.602076" stop-color="#AC57C0"/>
<stop offset="0.801867" stop-color="#E65659"/>
<stop offset="1" stop-color="#F2C241"/>
</linearGradient>
</defs>
</svg>
